<svg width="512" height="586" viewBox="0 0 512 586" fill="none" xmlns="http://www.w3.org/2000/svg">
<path d="M457.143 36.5714H54.8571C24.5714 36.5714 0 61.1429 0 91.4286V493.714C0 524 24.5714 548.571 54.8571 548.571H457.143C487.429 548.571 512 524 512 493.714V91.4286C512 61.1429 487.429 36.5714 457.143 36.5714ZM274.286 365.714H219.429V420.571C219.429 430.629 211.2 438.857 201.143 438.857H164.571C154.514 438.857 146.286 430.629 146.286 420.571V164.571C146.286 154.514 154.514 146.286 164.571 146.286H274.286C334.743 146.286 384 195.543 384 256C384 316.457 334.743 365.714 274.286 365.714ZM274.286 219.429H219.429V292.571H274.286C294.4 292.571 310.857 276.114 310.857 256C310.857 235.886 294.4 219.429 274.286 219.429Z" fill="black"/>
</svg>
